<svg xmlns="http://www.w3.org/2000/svg" width="70" height="82.085" viewBox="0 0 100 122.085">
  <g id="Group_73" data-name="Group 73" transform="translate(-1141 -432.915)">
    <g id="Icon_feather-package" data-name="Icon feather-package" transform="translate(1154.173 430.997)">
      <path id="Path_6" data-name="Path 6" d="M43.55,24.942,11.25,6.315" transform="translate(9.4 4.612)" fill="none" stroke="#75787b" stroke-linecap="round" stroke-linejoin="round" stroke-width="2"/>
      <path id="Path_7" data-name="Path 7" d="M69.1,53.241V24.529a7.178,7.178,0,0,0-3.589-6.209L40.389,3.965a7.178,7.178,0,0,0-7.178,0L8.089,18.32A7.178,7.178,0,0,0,4.5,24.529V53.241A7.178,7.178,0,0,0,8.089,59.45L33.211,73.805a7.178,7.178,0,0,0,7.178,0L65.512,59.45A7.178,7.178,0,0,0,69.1,53.241Z" transform="translate(0 0)" fill="none" stroke="#75787b" stroke-linecap="round" stroke-linejoin="round" stroke-width="2"/>
      <path id="Path_8" data-name="Path 8" d="M4.905,10.44,36.236,28.564,67.568,10.44" transform="translate(0.564 10.357)" fill="none" stroke="#75787b" stroke-linecap="round" stroke-linejoin="round" stroke-width="2"/>
      <path id="Path_9" data-name="Path 9" d="M18,54.176V18" transform="translate(18.8 20.885)" fill="none" stroke="#75787b" stroke-linecap="round" stroke-linejoin="round" stroke-width="2"/>
    </g>
    <text id="Bouqets" transform="translate(1141 522)" fill="#75787b" font-size="25" font-family="SegoeUI-Semilight, Segoe UI" font-weight="300"><tspan x="6.317" y="27">Bouqets</tspan></text>
  </g>
</svg>
