<svg xmlns="http://www.w3.org/2000/svg" width="27.963" height="35" viewBox="0 0 27.963 35">
  <g id="Icon_ionic-ios-notifications-outline" data-name="Icon ionic-ios-notifications-outline" transform="translate(-6.775 -3.93)">
    <path id="Path_4" data-name="Path 4" d="M20.37,28.336a.911.911,0,0,0-.893.717,1.762,1.762,0,0,1-.352.766,1.329,1.329,0,0,1-1.132.415,1.351,1.351,0,0,1-1.132-.415,1.762,1.762,0,0,1-.352-.766.911.911,0,0,0-.893-.717h0a.917.917,0,0,0-.893,1.118,3.142,3.142,0,0,0,3.27,2.609,3.136,3.136,0,0,0,3.27-2.609.92.92,0,0,0-.893-1.118Z" transform="translate(2.737 6.868)"/>
    <path id="Path_5" data-name="Path 5" d="M34.387,30.966c-1.347-1.852-4-2.938-4-11.232,0-8.513-3.6-11.935-6.963-12.756-.315-.082-.542-.192-.542-.538V6.175a2.2,2.2,0,0,0-2.1-2.245h-.052a2.2,2.2,0,0,0-2.1,2.245V6.44c0,.338-.227.456-.542.538-3.368.83-6.963,4.243-6.963,12.756,0,8.294-2.651,9.371-4,11.232a1.818,1.818,0,0,0,1.391,2.9h24.5A1.82,1.82,0,0,0,34.387,30.966Zm-3.412.529h-20.4a.4.4,0,0,1-.289-.666,11.126,11.126,0,0,0,1.837-3.048,21.479,21.479,0,0,0,1.251-8.048c0-3.4.612-6.068,1.828-7.92A5.615,5.615,0,0,1,18.588,9.3a3.039,3.039,0,0,0,1.627-.958.673.673,0,0,1,1.041-.018A3.139,3.139,0,0,0,22.9,9.3a5.615,5.615,0,0,1,3.385,2.518c1.216,1.852,1.828,4.517,1.828,7.92a21.479,21.479,0,0,0,1.251,8.048,11.248,11.248,0,0,0,1.881,3.093A.379.379,0,0,1,30.975,31.5Z" transform="translate(0 0)"/>
  </g>
</svg>
