<svg xmlns="http://www.w3.org/2000/svg" width="80" height="86" viewBox="0 0 110 116">
  <g id="Group_72" data-name="Group 72" transform="translate(-1209 -434)">
    <text id="Suppliers" transform="translate(1209 517)" fill="#75787b" font-size="25" font-family="SegoeUI-Semilight, Segoe UI" font-weight="300"><tspan x="5.934" y="27">Suppliers</tspan></text>
    <path id="Icon_awesome-users" data-name="Icon awesome-users" d="M13.929,30.107a9.286,9.286,0,1,0-9.286-9.286A9.294,9.294,0,0,0,13.929,30.107Zm65,0a9.286,9.286,0,1,0-9.286-9.286A9.294,9.294,0,0,0,78.929,30.107Zm4.643,4.643H74.286a9.258,9.258,0,0,0-6.544,2.7,21.223,21.223,0,0,1,10.9,15.873h9.576a4.638,4.638,0,0,0,4.643-4.643V44.036A9.294,9.294,0,0,0,83.571,34.75Zm-37.143,0A16.25,16.25,0,1,0,30.179,18.5,16.242,16.242,0,0,0,46.429,34.75Zm11.143,4.643h-1.2a22.436,22.436,0,0,1-19.877,0h-1.2A16.719,16.719,0,0,0,18.571,56.107v4.179a6.966,6.966,0,0,0,6.964,6.964H67.321a6.966,6.966,0,0,0,6.964-6.964V56.107A16.719,16.719,0,0,0,57.571,39.393ZM25.115,37.449a9.258,9.258,0,0,0-6.544-2.7H9.286A9.294,9.294,0,0,0,0,44.036v4.643a4.638,4.638,0,0,0,4.643,4.643H14.2A21.276,21.276,0,0,1,25.115,37.449Z" transform="translate(1218 432.75)" fill="none" stroke="#75787b" stroke-width="2"/>
  </g>
</svg>
